<svg width="20" height="20" viewBox="0 0 20 20" fill="none" xmlns="http://www.w3.org/2000/svg">
<path d="M16.7083 9.16669H3.29167C2.85444 9.16669 2.5 9.52113 2.5 9.95835V10.0417C2.5 10.4789 2.85444 10.8334 3.29167 10.8334H16.7083C17.1456 10.8334 17.5 10.4789 17.5 10.0417V9.95835C17.5 9.52113 17.1456 9.16669 16.7083 9.16669Z" fill="white"/>
<path d="M16.7083 13.3333H3.29167C2.85444 13.3333 2.5 13.6878 2.5 14.125V14.2083C2.5 14.6455 2.85444 15 3.29167 15H16.7083C17.1456 15 17.5 14.6455 17.5 14.2083V14.125C17.5 13.6878 17.1456 13.3333 16.7083 13.3333Z" fill="white"/>
<path d="M16.7083 5H3.29167C2.85444 5 2.5 5.35444 2.5 5.79167V5.875C2.5 6.31223 2.85444 6.66667 3.29167 6.66667H16.7083C17.1456 6.66667 17.5 6.31223 17.5 5.875V5.79167C17.5 5.35444 17.1456 5 16.7083 5Z" fill="white"/>
</svg>
